<?xml version="1.0" encoding="utf-8"?>
<!-- Generator: Adobe Illustrator 18.1.1, SVG Export Plug-In . SVG Version: 6.00 Build 0)  -->
<svg version="1.1" id="Layer_1" xmlns="http://www.w3.org/2000/svg" xmlns:xlink="http://www.w3.org/1999/xlink" x="0px" y="0px"
	 viewBox="0 0 841.9 595.3" enable-background="new 0 0 841.9 595.3" xml:space="preserve">
<g>
	<path fill="#1A60AA" d="M649.2,193.9v-85.8c0-6.9-4.4-12.6-9.7-12.6c-5.3,0-9.5,5.6-9.5,12.6V147h-48.6V49.1h201.7V147h-48.6v-38.9
		c0-6.9-4.3-12.6-9.6-12.6c-5.3,0-9.6,5.6-9.6,12.6v85.8H649.2z M483.8,193.9v-88.1c0-8.1-6.6-14.7-14.7-14.7h-4.5l0-42.1H569v42.1
		h-4.5c-8.1,0-14.8,6.5-14.8,14.7v88.1H483.8z M366.9,193.9v-88.1c0-8.1-6.6-14.7-14.7-14.7h-4.5V49.1h104.5v42.1h-4.5
		c-8.1,0-14.8,6.5-14.8,14.7v88.1H366.9z M131.4,193.9v-88.1c0-8.1-6.6-14.7-14.7-14.7h-4.5V49.1h99l49.3,112.4v-55.7
		c0-8.1-6.6-14.7-14.7-14.7h-4.6l0-42.1h94.1v42.1h-4.6c-8.1,0-14.7,6.5-14.7,14.7v88.1H196.7l-8.3-18.9v18.9H131.4z M715.3,193.9
		v37.9c0,8.1,6.6,14.6,14.7,14.6h4.6V288L630,288v-41.6h4.5c8.1,0,14.7-6.6,14.7-14.6v-37.9H715.3z M549.8,193.9v37.9
		c0,8,6.6,14.6,14.8,14.6h4.5v41.5h-10.4h-94.1v-41.5h4.5c8.1,0,14.7-6.6,14.7-14.6v-37.9H549.8z M432.9,193.9v37.9
		c0,8,6.6,14.6,14.8,14.6h4.5v41.5h-10.4h-94.1v-41.5h4.5c8.2,0,14.7-6.6,14.7-14.6v-37.9H432.9z M316,193.9v94h-78.2l-41.1-94H316z
		 M188.5,193.9l0,37.9c0,8.1,6.6,14.6,14.7,14.6h4.5v41.5h-95.6v-41.5h4.5c8.1,0,14.7-6.6,14.7-14.6v-37.9H188.5z"/>
	<path fill="#F08822" d="M151.9,319.3h591.6c21.9,0,39.8,17.8,39.8,39.8V399c0,22-17.8,39.7-39.8,39.7H151.9
		c-22,0-39.8-17.8-39.8-39.7v-39.8C112.1,337.1,129.9,319.3,151.9,319.3"/>
	<path fill="#2A2522" d="M164.8,401.8l1.1,7.2c-2.2,0.5-4.3,0.7-6.1,0.7c-3,0-5.3-0.5-6.9-1.4c-1.6-0.9-2.7-2.2-3.4-3.7
		c-0.7-1.5-1-4.7-1-9.6v-27.6h-6v-6.3h6v-11.9l8.1-4.9v16.8h8.1v6.3h-8.1v28.1c0,2.3,0.1,3.8,0.4,4.5c0.3,0.7,0.7,1.2,1.4,1.6
		c0.6,0.4,1.5,0.6,2.8,0.6C162.2,402.1,163.3,402,164.8,401.8"/>
	<path fill="#2A2522" d="M187.8,380.5h26.7c-0.4-4.1-1.4-7.1-3.1-9.1c-2.6-3.1-5.9-4.7-10.1-4.7c-3.7,0-6.8,1.2-9.4,3.7
		C189.5,372.9,188.1,376.3,187.8,380.5 M214.5,393.5l8.4,1.1c-1.3,4.9-3.8,8.7-7.3,11.4c-3.6,2.7-8.1,4.1-13.7,4.1
		c-7,0-12.5-2.2-16.6-6.5c-4.1-4.3-6.1-10.3-6.1-18.2c0-8,2.1-14.3,6.3-18.7c4.1-4.4,9.5-6.6,16.1-6.6c6.4,0,11.6,2.2,15.7,6.5
		c4,4.4,6.1,10.5,6.1,18.4c0,0.5,0,1.2-0.1,2.1h-35.7c0.3,5.2,1.8,9.3,4.5,12.1c2.7,2.7,6,4.2,10,4.2c3,0,5.5-0.8,7.6-2.4
		C211.6,399.5,213.2,397,214.5,393.5"/>
	<path fill="#2A2522" d="M273.5,391.5l8,1.1c-0.9,5.5-3.1,9.7-6.7,12.8c-3.6,3.1-8,4.7-13.2,4.7c-6.6,0-11.8-2.2-15.8-6.5
		c-4-4.3-6-10.4-6-18.4c0-5.2,0.9-9.6,2.6-13.5c1.7-3.9,4.3-6.8,7.8-8.7c3.5-1.9,7.3-2.9,11.4-2.9c5.3,0,9.5,1.3,12.8,3.9
		c3.3,2.6,5.4,6.4,6.4,11.2l-7.8,1.2c-0.8-3.2-2.1-5.7-4.1-7.3c-1.9-1.6-4.2-2.4-6.9-2.4c-4.1,0-7.4,1.5-10,4.4
		c-2.6,2.9-3.8,7.5-3.8,13.9c0,6.4,1.2,11.1,3.7,14c2.5,2.9,5.7,4.4,9.6,4.4c3.2,0,5.8-1,8-2.9C271.6,398.5,272.9,395.5,273.5,391.5
		"/>
	<path fill="#2A2522" d="M297.4,409v-66.2h8.1v23.8c3.8-4.4,8.6-6.6,14.3-6.6c3.5,0,6.6,0.6,9.2,2.1c2.6,1.4,4.4,3.3,5.6,5.8
		c1.1,2.5,1.7,6,1.7,10.7V409h-8.2v-30.3c0-4-0.9-7-2.6-8.8c-1.8-1.9-4.2-2.8-7.4-2.8c-2.4,0-4.7,0.7-6.8,1.9
		c-2.1,1.2-3.6,2.9-4.5,5.1c-0.9,2.1-1.4,5-1.4,8.8V409H297.4z"/>
	<path fill="#2A2522" d="M357.8,409v-47.9h7.3v6.8c3.5-5.2,8.6-7.8,15.2-7.8c2.9,0,5.5,0.5,8,1.5c2.4,1,4.2,2.4,5.4,4.1
		c1.2,1.7,2,3.6,2.5,5.9c0.3,1.5,0.4,4.2,0.4,7.9V409h-8.1v-29.1c0-3.3-0.4-5.8-1-7.4c-0.6-1.7-1.7-3-3.4-3.9
		c-1.6-1-3.5-1.5-5.6-1.5c-3.5,0-6.4,1.1-8.9,3.3c-2.5,2.2-3.8,6.4-3.8,12.5V409H357.8z"/>
	<path fill="#2A2522" d="M423.5,385.1c0,6.1,1.3,10.7,4,13.7c2.7,3,6.1,4.6,10.2,4.6c4,0,7.4-1.5,10.1-4.6c2.7-3.1,4-7.7,4-14
		c0-5.9-1.3-10.4-4-13.5c-2.7-3-6.1-4.5-10.1-4.5c-4.1,0-7.5,1.5-10.2,4.5C424.8,374.3,423.5,378.9,423.5,385.1 M415.2,385
		c0-8.9,2.5-15.4,7.4-19.7c4.1-3.6,9.1-5.3,15.1-5.3c6.6,0,12,2.1,16.2,6.4c4.2,4.3,6.3,10.3,6.3,17.9c0,6.2-0.9,11-2.8,14.5
		c-1.8,3.5-4.5,6.3-8.1,8.3c-3.5,2-7.4,2.9-11.6,2.9c-6.7,0-12.2-2.2-16.3-6.5C417.2,399.3,415.2,393.1,415.2,385"/>
</g>
<rect x="478.5" y="342.8" fill="#2A2522" width="8.1" height="66.2"/>
<g>
	<path fill="#2A2522" d="M513.5,385.1c0,6.1,1.3,10.7,4,13.7c2.7,3,6.1,4.6,10.1,4.6c4.1,0,7.4-1.5,10.1-4.6c2.7-3.1,4-7.7,4-14
		c0-5.9-1.3-10.4-4-13.5c-2.7-3-6-4.5-10.1-4.5c-4.1,0-7.4,1.5-10.1,4.5C514.8,374.3,513.5,378.9,513.5,385.1 M505.2,385
		c0-8.9,2.4-15.4,7.4-19.7c4.1-3.6,9.2-5.3,15.1-5.3c6.6,0,12,2.1,16.2,6.4c4.2,4.3,6.3,10.3,6.3,17.9c0,6.2-0.9,11-2.7,14.5
		c-1.9,3.5-4.6,6.3-8.1,8.3c-3.6,2-7.4,2.9-11.6,2.9c-6.7,0-12.1-2.2-16.3-6.5C507.2,399.3,505.2,393.1,505.2,385"/>
	<path fill="#2A2522" d="M573.8,384.2c0,6.3,1.2,10.9,3.7,13.7c2.5,2.9,5.6,4.3,9.4,4.3c3.8,0,6.9-1.5,9.4-4.3
		c2.6-2.9,3.8-7.4,3.8-13.5c0-5.9-1.3-10.3-3.9-13.2c-2.6-3-5.8-4.5-9.4-4.5c-3.6,0-6.7,1.5-9.2,4.4
		C575.1,374.1,573.8,378.4,573.8,384.2 M567.1,413l7.8,1.1c0.3,2.4,1.3,4.2,2.8,5.3c2,1.5,4.8,2.2,8.2,2.2c3.8,0,6.7-0.7,8.7-2.2
		c2.1-1.5,3.4-3.6,4.2-6.3c0.4-1.6,0.6-5.1,0.6-10.4c-3.5,4.2-8,6.3-13.3,6.3c-6.6,0-11.7-2.4-15.3-7.1c-3.6-4.7-5.4-10.5-5.4-17.1
		c0-4.6,0.8-8.8,2.5-12.7c1.7-3.9,4.1-6.8,7.2-8.9c3.2-2.1,6.9-3.2,11.2-3.2c5.6,0,10.3,2.3,14,6.9v-5.9h7.5v41.4
		c0,7.5-0.8,12.7-2.3,15.9c-1.5,3.1-3.9,5.6-7.2,7.4c-3.3,1.8-7.3,2.7-12.2,2.7c-5.7,0-10.3-1.3-13.8-3.8
		C568.7,422,567,418.2,567.1,413"/>
</g>
<path fill="#2A2522" d="M629.1,361.1h8.2V409h-8.2V361.1z M629.1,342.8h8.2v9.2h-8.2V342.8z"/>
<g>
	<path fill="#2A2522" d="M664.7,380.5h26.7c-0.4-4.1-1.4-7.1-3-9.1c-2.6-3.1-6-4.7-10.1-4.7c-3.7,0-6.9,1.2-9.4,3.7
		C666.4,372.9,665,376.3,664.7,380.5 M691.4,393.5l8.4,1.1c-1.3,4.9-3.8,8.7-7.3,11.4c-3.6,2.7-8.1,4.1-13.7,4.1
		c-7,0-12.6-2.2-16.6-6.5c-4.1-4.3-6.2-10.3-6.2-18.2c0-8,2.1-14.3,6.3-18.7c4.1-4.4,9.5-6.6,16.1-6.6c6.4,0,11.6,2.2,15.7,6.5
		c4.1,4.4,6.1,10.5,6.1,18.4c0,0.5,0,1.2,0,2.1h-35.7c0.3,5.2,1.8,9.3,4.5,12.1c2.7,2.7,6,4.2,10,4.2c3,0,5.5-0.8,7.6-2.4
		C688.5,399.5,690.1,397,691.4,393.5"/>
	<path fill="#2A2522" d="M715.8,394.7l8-1.3c0.5,3.2,1.7,5.7,3.8,7.4c2.1,1.7,5,2.6,8.7,2.6c3.7,0,6.5-0.8,8.3-2.3
		c1.9-1.5,2.7-3.2,2.7-5.3c0-1.9-0.8-3.3-2.4-4.4c-1.1-0.7-3.9-1.6-8.3-2.8c-5.9-1.5-10.1-2.7-12.4-3.9c-2.3-1.1-4.1-2.6-5.3-4.6
		c-1.2-1.9-1.8-4-1.8-6.4c0-2.2,0.5-4.1,1.5-5.9c1-1.8,2.3-3.3,4-4.5c1.3-0.9,3-1.7,5.2-2.4c2.2-0.7,4.5-1,7-1
		c3.7,0,7.1,0.5,9.9,1.6c2.8,1.1,4.9,2.5,6.3,4.4c1.4,1.9,2.4,4.3,2.8,7.5l-8,1.1c-0.3-2.5-1.4-4.4-3.1-5.9
		c-1.8-1.4-4.2-2.1-7.3-2.1c-3.8,0-6.5,0.6-8,1.8c-1.6,1.2-2.4,2.7-2.4,4.3c0,1,0.3,2,1,2.9c0.7,0.8,1.7,1.5,3.1,2.1
		c0.8,0.3,3.2,1,7.2,2.1c5.7,1.5,9.7,2.8,12,3.7c2.3,1,4.1,2.4,5.4,4.3c1.3,1.9,2,4.2,2,6.9c0,2.7-0.8,5.3-2.4,7.7
		c-1.5,2.3-3.8,4.2-6.8,5.5c-3,1.3-6.4,2-10.1,2c-6.2,0-11-1.3-14.2-3.9C718.8,403.6,716.7,399.8,715.8,394.7"/>
</g>
<polygon fill="#2A2522" points="141.1,492.2 147,492.2 147,537 140.2,537 117.4,500.8 117.3,500.8 117.3,537 111.4,537 111.4,492.2 
	118.6,492.2 141,528.4 141.1,528.4 "/>
<g>
	<path fill="#2A2522" d="M178.3,518.1c-0.3-5.1-2.4-9.7-9.1-9.7c-5.1,0-9.1,4.7-9.1,9.7H178.3z M183.5,526.8
		c-0.2,1.6-1.7,6.2-5.8,8.9c-1.5,1-3.6,2.3-8.9,2.3c-9.2,0-14.6-6.9-14.6-16.4c0-10.1,4.9-18.2,15.7-18.2c9.4,0,14,7.5,14,19h-23.8
		c0,6.8,3.2,10.7,9.5,10.7c5.2,0,8.2-4,8.4-6.4H183.5z"/>
</g>
<polygon fill="#2A2522" points="201.2,537 195.5,537 186.1,504.4 192.1,504.4 198.3,530 198.4,530 204.7,504.4 210.8,504.4 
	217.2,530 217.3,530 224,504.4 229.5,504.4 220,537 214.3,537 207.7,511.7 207.5,511.7 "/>
<rect x="253.3" y="492.2" fill="#2A2522" width="6.1" height="44.8"/>
<g>
	<path fill="#2A2522" d="M281.6,533.2c3.5,0,8.9-2.3,8.9-11c0-5.3-0.9-13.9-8.8-13.9c-8.5,0-8.9,8.1-8.9,12.2
		C272.8,527.8,275.6,533.2,281.6,533.2 M296.1,537h-5.2v-4.5h-0.1c-2.4,4.4-6.1,5.4-9.3,5.4c-11.1,0-14.3-10.4-14.3-18.2
		c0-9.2,4.9-16.3,13.6-16.3c5.9,0,8.4,3.7,9.7,5.6l0.1-0.4v-16.3h5.5V537z"/>
	<path fill="#2A2522" d="M326.2,518.1c-0.3-5.1-2.4-9.7-9.1-9.7c-5.1,0-9.1,4.7-9.1,9.7H326.2z M331.5,526.8
		c-0.2,1.6-1.7,6.2-5.8,8.9c-1.5,1-3.6,2.3-8.9,2.3c-9.2,0-14.6-6.9-14.6-16.4c0-10.1,4.9-18.2,15.7-18.2c9.4,0,14,7.5,14,19H308
		c0,6.8,3.2,10.7,9.5,10.7c5.2,0,8.2-4,8.4-6.4H331.5z"/>
	<path fill="#2A2522" d="M358.4,520.3c-0.9,0.7-2.3,1.2-9.1,2.1c-2.7,0.4-7,1.2-7,5.3c0,3.6,1.8,5.7,5.9,5.7
		c5.1,0,10.1-3.3,10.1-7.7V520.3z M338.3,514.3c0.2-7.8,5.4-10.9,13.5-10.9c2.6,0,12.1,0.7,12.1,9.1v18.8c0,1.4,0.7,1.9,1.8,1.9
		c0.5,0,1.2-0.1,1.8-0.3v4c-0.9,0.3-1.7,0.6-3,0.6c-4.9,0-5.6-2.5-5.8-5c-2.1,2.3-5.4,5.3-11.8,5.3c-6,0-10.2-3.8-10.2-9.4
		c0-2.7,0.8-9.1,9.9-10.2l9-1.1c1.3-0.1,2.9-0.6,2.9-3.9c0-3.4-2.5-5.3-7.7-5.3c-6.2,0-7.1,3.8-7.5,6.3H338.3z"/>
	<path fill="#2A2522" d="M391.7,513.7c-0.1-2.1-0.8-5.5-7.7-5.5c-1.7,0-6.5,0.6-6.5,4.6c0,2.7,1.7,3.3,5.9,4.4l5.5,1.4
		c6.8,1.7,9.2,4.2,9.2,8.6c0,6.7-5.6,10.8-12.9,10.8c-12.9,0-13.9-7.5-14-11.4h5.3c0.2,2.6,0.9,6.7,8.7,6.7c3.9,0,7.5-1.6,7.5-5.2
		c0-2.6-1.8-3.5-6.5-4.7l-6.4-1.6c-4.6-1.1-7.6-3.4-7.6-7.9c0-7.2,5.9-10.4,12.4-10.4c11.7,0,12.5,8.6,12.5,10.2H391.7z"/>
	<path fill="#2A2522" d="M404.8,530.4h6.5v6.1c0,8.5-5.2,9.5-6.5,9.7v-2.9c2.6-0.3,3.3-3.4,3.3-6.3h-3.3V530.4z"/>
	<path fill="#2A2522" d="M475.7,537v-26.5c0-1.3,0.1-7,0.1-11.2h-0.1L463.1,537h-6l-12.6-37.6h-0.1c0,4.1,0.1,9.8,0.1,11.1V537h-5.9
		v-44.8h8.7l12.8,37.9h0.1l12.7-37.9h8.6V537H475.7z"/>
	<path fill="#2A2522" d="M503.4,533.1c7.9,0,9.5-8.1,9.5-12.5c0-4.4-1.6-12.5-9.5-12.5c-7.9,0-9.5,8.1-9.5,12.5
		C493.9,525,495.6,533.1,503.4,533.1 M503.4,503.4c10.4,0,15.2,8.8,15.2,17.2c0,8.4-4.7,17.2-15.2,17.2c-10.4,0-15.2-8.8-15.2-17.2
		C488.3,512.2,493,503.4,503.4,503.4"/>
	<path fill="#2A2522" d="M531.1,537h-5.5v-32.6h5.2v5.4h0.1c2.2-3.8,5-6.4,9.2-6.4c0.7,0,1,0.1,1.4,0.2v5.7h-2.1
		c-5.1,0-8.4,4-8.4,8.7V537z"/>
	<path fill="#2A2522" d="M568.1,518.1c-0.3-5.1-2.4-9.7-9.1-9.7c-5.1,0-9,4.7-9,9.7H568.1z M573.3,526.8c-0.2,1.6-1.7,6.2-5.8,8.9
		c-1.5,1-3.6,2.3-8.9,2.3c-9.2,0-14.6-6.9-14.6-16.4c0-10.1,4.9-18.2,15.7-18.2c9.4,0,14,7.5,14,19h-23.8c0,6.8,3.2,10.7,9.5,10.7
		c5.2,0,8.2-4,8.4-6.4H573.3z"/>
</g>
<polygon fill="#2A2522" points="624.1,492.2 630.9,492.2 614.5,537 608.1,537 591.8,492.2 598.5,492.2 611.3,530.4 611.4,530.4 "/>
<g>
	<path fill="#2A2522" d="M651.7,520.3c-0.9,0.7-2.3,1.2-9.1,2.1c-2.7,0.4-7,1.2-7,5.3c0,3.6,1.8,5.7,5.9,5.7
		c5.1,0,10.1-3.3,10.1-7.7V520.3z M631.6,514.3c0.2-7.8,5.4-10.9,13.5-10.9c2.6,0,12.1,0.7,12.1,9.1v18.8c0,1.4,0.7,1.9,1.8,1.9
		c0.5,0,1.2-0.1,1.8-0.3v4c-0.9,0.3-1.8,0.6-3,0.6c-4.9,0-5.6-2.5-5.8-5c-2.1,2.3-5.4,5.3-11.8,5.3c-6,0-10.2-3.8-10.2-9.4
		c0-2.7,0.8-9.1,9.9-10.2l9-1.1c1.3-0.1,2.9-0.6,2.9-3.9c0-3.4-2.5-5.3-7.7-5.3c-6.2,0-7.1,3.8-7.5,6.3H631.6z"/>
</g>
<rect x="666.7" y="492.2" fill="#2A2522" width="5.5" height="44.8"/>
<g>
	<path fill="#2A2522" d="M701.7,537v-4.7l-0.1-0.1c-2.3,3.8-5.1,5.8-10.4,5.8c-4.8,0-10.6-2.3-10.6-10.1v-23.5h5.5V526
		c0,5.4,2.7,7.2,6.3,7.2c6.9,0,9-6.1,9-10.9v-18h5.5V537H701.7z"/>
	<path fill="#2A2522" d="M737.6,518.1c-0.3-5.1-2.4-9.7-9.1-9.7c-5.1,0-9,4.7-9,9.7H737.6z M742.8,526.8c-0.2,1.6-1.7,6.2-5.8,8.9
		c-1.5,1-3.6,2.3-8.9,2.3c-9.2,0-14.6-6.9-14.6-16.4c0-10.1,4.9-18.2,15.7-18.2c9.4,0,14,7.5,14,19h-23.8c0,6.8,3.2,10.7,9.5,10.7
		c5.2,0,8.2-4,8.4-6.4H742.8z"/>
</g>
<rect x="750.3" y="530.4" fill="#2A2522" width="6.5" height="6.6"/>
<polygon fill="#2A2522" points="729.8,469.1 751,469.1 751,472.3 742.2,472.3 742.2,495.3 738.6,495.3 738.6,472.3 729.8,472.3 "/>
<path fill="#2A2522" d="M775.8,495.3v-15.4c0-0.8,0.1-4.1,0.1-6.5h-0.1l-7.4,22h-3.5l-7.3-21.9h-0.1c0,2.4,0.1,5.7,0.1,6.5v15.4
	h-3.4v-26.1h5.1l7.5,22.1h0.1l7.4-22.1h5v26.1H775.8z"/>
</svg>
